<svg enable-background="new 0 0 512 512" viewBox="0 0 512 512" xmlns="http://www.w3.org/2000/svg"><g id="_x31_0_Mobile_app_development"><g><path d="m66.143 504.352h260.127c14.233 0 25.813-11.58 25.813-25.813v-244.957c3.981-5.668 10.387-9.441 17.586-9.782 10.115-.497 19.545 5.954 22.76 15.653.832 2.525 3.538 3.911 6.097 3.11 9.055-2.875 17.724-6.967 25.77-12.157 2.24-1.443 2.901-4.42 1.488-6.677-5.421-8.653-4.413-19.961 2.449-27.504 6.862-7.545 18.023-9.62 27.154-5.043 2.392 1.196 5.283.252 6.506-2.111 4.404-8.491 7.656-17.51 9.668-26.802.561-2.606-1.075-5.181-3.671-5.776-9.958-2.283-17.253-10.992-17.738-21.181-.48-10.201 5.959-19.569 15.655-22.781 2.53-.837 3.919-3.557 3.11-6.097-2.877-9.059-6.972-17.729-12.16-25.768-1.436-2.24-4.423-2.896-6.672-1.488-8.655 5.417-19.959 4.415-27.506-2.447-7.547-6.865-9.62-18.033-5.046-27.159 1.194-2.383.252-5.281-2.111-6.506-8.503-4.406-17.519-7.659-26.797-9.668-2.606-.554-5.188 1.07-5.778 3.674-2.283 9.958-10.995 17.251-21.186 17.733-3.348.181-6.588-.467-9.578-1.68v-19.664c0-14.233-11.58-25.813-25.813-25.813-21.046 0-226.669 0-260.127 0-14.233 0-25.813 11.58-25.813 25.813v445.078c0 14.234 11.579 25.813 25.813 25.813zm295.978-439.816c12.878-.611 24.096-8.838 28.752-20.58 5.507 1.458 10.89 3.403 16.088 5.806-3.881 12.012-.471 25.499 9.064 34.173 9.53 8.665 23.269 10.781 34.867 5.785 2.887 4.946 5.331 10.122 7.3 15.467-11.247 5.745-18.38 17.698-17.771 30.58v.002c.613 12.876 8.84 24.096 20.582 28.752-1.46 5.509-3.4 10.893-5.806 16.088-12.012-3.885-25.499-.468-34.168 9.062-8.674 9.53-10.79 23.276-5.787 34.867-4.951 2.887-10.125 5.331-15.47 7.302-5.74-11.252-17.795-18.363-30.564-17.771-12.887.611-24.111 8.838-28.766 20.582-5.507-1.458-10.895-3.4-16.088-5.806 3.88-12.015.476-25.499-9.055-34.166-9.54-8.674-23.297-10.795-34.882-5.795-2.882-4.948-5.326-10.124-7.295-15.467 11.247-5.745 18.38-17.691 17.771-30.568-.613-12.885-8.84-24.108-20.582-28.766 1.45-5.5 3.395-10.883 5.802-16.088 12.017 3.883 25.504.476 34.173-9.052 8.669-9.537 10.79-23.288 5.787-34.882 4.951-2.887 10.129-5.329 15.47-7.297 5.745 11.249 17.738 18.366 30.578 17.772zm-98.696 57.577c9.963 2.283 17.253 11 17.738 21.195.48 10.193-5.959 19.555-15.655 22.767-2.53.837-3.919 3.555-3.11 6.097 2.877 9.052 6.962 17.719 12.15 25.768 1.446 2.24 4.432 2.896 6.677 1.488 8.646-5.419 19.968-4.411 27.52 2.456 7.542 6.857 9.611 18.023 5.036 27.152-1.194 2.383-.257 5.281 2.111 6.506.309.16.631.292.942.45v208.218c0 5.371-4.37 9.742-9.739 9.742h-190.249c-5.369 0-9.739-4.37-9.739-9.742v-376.419c0-5.371 4.37-9.742 9.739-9.742h190.249c.027 0 .052.009.08.009 3.441 8.105 1.955 17.68-4.093 24.332-6.862 7.54-18.038 9.613-27.159 5.031-2.378-1.191-5.279-.247-6.506 2.114-4.413 8.515-7.661 17.534-9.663 26.804-.561 2.607 1.075 5.18 3.671 5.774zm-181.827-88.652c0-8.862 7.209-16.074 16.074-16.074h228.598c8.864 0 16.074 7.212 16.074 16.074v12.262c-1.477-1.955-2.66-4.162-3.457-6.57-.837-2.528-3.552-3.914-6.097-3.11-9.045 2.872-17.719 6.96-25.77 12.153-.048.031-.071.082-.118.114h-190.056c-10.743 0-19.479 8.738-19.479 19.481v376.418c0 10.743 8.736 19.481 19.479 19.481h190.249c10.743 0 19.479-8.738 19.479-19.481v-203.9c5.138 1.995 10.402 3.633 15.769 4.813v233.417c0 8.862-7.209 16.074-16.074 16.074h-228.597c-8.864 0-16.074-7.212-16.074-16.074zm-31.529 0c0-8.862 7.209-16.074 16.074-16.074h11.494c-3.558 4.425-5.778 9.967-5.778 16.074v445.078c0 6.106 2.22 11.649 5.778 16.074h-11.494c-8.864 0-16.074-7.212-16.074-16.074z"/><path d="m60.469 130.842c2.692 0 4.87-2.18 4.87-4.87v-24.672c0-2.689-2.178-4.87-4.87-4.87s-4.87 2.18-4.87 4.87v24.672c.001 2.689 2.179 4.87 4.87 4.87z"/><path d="m60.469 186.365c2.692 0 4.87-2.18 4.87-4.87v-24.672c0-2.689-2.178-4.87-4.87-4.87s-4.87 2.18-4.87 4.87v24.672c.001 2.69 2.179 4.87 4.87 4.87z"/><path d="m60.469 311.965c2.692 0 4.87-2.18 4.87-4.87v-80.642c0-2.689-2.178-4.87-4.87-4.87s-4.87 2.18-4.87 4.87v80.642c.001 2.69 2.179 4.87 4.87 4.87z"/><path d="m198.027 38h27.891c2.692 0 4.87-2.18 4.87-4.87s-2.178-4.87-4.87-4.87h-27.891c-2.692 0-4.87 2.18-4.87 4.87s2.179 4.87 4.87 4.87z"/><path d="m149.802 145.824c1.902 1.902 4.984 1.902 6.886 0s1.902-4.984 0-6.886l-17.724-17.724 18.461-18.461c1.902-1.902 1.902-4.984 0-6.886s-4.984-1.902-6.886 0l-21.904 21.904c-1.902 1.902-1.902 4.984 0 6.886z"/><path d="m217.088 121.214-17.724 17.724c-1.902 1.902-1.902 4.984 0 6.886s4.984 1.902 6.886 0l21.167-21.167c.913-.913 1.427-2.152 1.427-3.443s-.514-2.53-1.427-3.443l-21.909-21.904c-1.902-1.902-4.984-1.902-6.886 0s-1.902 4.986 0 6.886z"/><path d="m170.269 163.722c2.589.488 5.172-1.246 5.659-3.923l13.781-76.169c.476-2.646-1.279-5.181-3.928-5.659-2.639-.495-5.179 1.282-5.659 3.923l-13.781 76.169c-.475 2.646 1.28 5.181 3.928 5.659z"/><path d="m132.078 224.621h93.208c2.692 0 4.87-2.18 4.87-4.87v-26.298c0-2.689-2.178-4.87-4.87-4.87h-93.208c-2.692 0-4.87 2.18-4.87 4.87v26.298c0 2.689 2.178 4.87 4.87 4.87zm4.87-26.298h83.469v16.559h-83.469z"/><path d="m254.504 398.031h-122.426c-2.692 0-4.87 2.18-4.87 4.87v26.296c0 2.689 2.178 4.87 4.87 4.87h122.426c2.692 0 4.87-2.18 4.87-4.87v-26.297c0-2.689-2.178-4.869-4.87-4.869zm-4.87 26.295h-112.686v-16.556h112.687v16.556z"/><path d="m132.078 276.981h45.948c2.692 0 4.87-2.18 4.87-4.87v-26.296c0-2.689-2.178-4.87-4.87-4.87h-45.948c-2.692 0-4.87 2.18-4.87 4.87v26.296c0 2.69 2.178 4.87 4.87 4.87zm4.87-26.295h36.209v16.556h-36.209z"/><path d="m194.408 245.816v26.296c0 2.689 2.178 4.87 4.87 4.87h97.303c2.692 0 4.87-2.18 4.87-4.87v-26.296c0-2.689-2.178-4.87-4.87-4.87h-97.303c-2.691 0-4.87 2.181-4.87 4.87zm9.74 4.87h87.563v16.556h-87.563z"/><path d="m132.078 381.705h45.948c2.692 0 4.87-2.18 4.87-4.87v-26.295c0-2.689-2.178-4.87-4.87-4.87h-45.948c-2.692 0-4.87 2.18-4.87 4.87v26.296c0 2.689 2.178 4.869 4.87 4.869zm4.87-26.296h36.209v16.556h-36.209z"/><path d="m296.581 345.67h-97.303c-2.692 0-4.87 2.18-4.87 4.87v26.296c0 2.689 2.178 4.87 4.87 4.87h97.303c2.692 0 4.87-2.18 4.87-4.87v-26.296c-.001-2.69-2.179-4.87-4.87-4.87zm-4.87 26.296h-87.563v-16.556h87.563z"/><path d="m132.078 329.342h50.841c2.692 0 4.87-2.18 4.87-4.87v-26.296c0-2.689-2.178-4.87-4.87-4.87h-50.841c-2.692 0-4.87 2.18-4.87 4.87v26.296c0 2.69 2.178 4.87 4.87 4.87zm4.87-26.296h41.102v16.556h-41.102z"/><path d="m203.663 329.342h50.841c2.692 0 4.87-2.18 4.87-4.87v-26.296c0-2.689-2.178-4.87-4.87-4.87h-50.841c-2.692 0-4.87 2.18-4.87 4.87v26.296c0 2.69 2.178 4.87 4.87 4.87zm4.869-26.296h41.102v16.556h-41.102z"/><path d="m318.114 141.556c1.218 25.811 22.566 45.349 47.493 45.349 27.205 0 48.876-22.765 47.593-49.852-1.237-26.22-23.448-46.532-49.795-45.294-26.279 1.244-46.531 23.511-45.291 49.797zm33.968-37.578c3.725-1.427 7.681-2.295 11.779-2.49 20.492-1.047 38.611 14.823 39.609 36.025.989 20.851-15.17 38.617-36.018 39.606-5.347.248-10.544-.63-15.37-2.485zm-9.739 5.533v59.579c-9.164-7.201-14-17.374-14.5-27.995-.57-12.001 4.464-23.698 14.5-31.584z"/></g></g><g id="Layer_1"/></svg>