<svg id="Layer_1" enable-background="new 0 0 66 66" height="512" viewBox="0 0 66 66" width="512" xmlns="http://www.w3.org/2000/svg"><g><g><path d="m62.15 6.12c0-1.54-1.25-2.79-2.79-2.79h-52.73c-1.53 0-2.78 1.25-2.78 2.78v10.32 32.56c0 1.53 1.25 2.78 2.78 2.78h13.42v2.35c0 .93.76 1.7 1.7 1.7h4.37c.1.24.25.47.44.65l6.1 5.72c.33.31.76.48 1.22.48h21.04c.98 0 1.78-.8 1.78-1.78v-11.53c0-.98-.8-1.78-1.78-1.78h-21.04c-.45 0-.89.17-1.22.48l-6.1 5.72c-.21.19-.36.43-.46.69h-4.36c-.19 0-.35-.16-.35-.35v-2.35h4.26c.37 0 .67-.3.67-.67s-.3-.67-.67-.67h-19.02c-.79 0-1.43-.64-1.43-1.43v-31.9h4.46c.67 0 1.26-.37 1.59-.93.04-.06.08-.11.11-.17l1.27-2.81c.08-.18.26-.3.47-.3h6.15c.21 0 .39.12.47.3l1.25 2.81c.05.1.12.19.18.28.34.5.9.82 1.52.82h38.14v31.89c0 .79-.65 1.43-1.44 1.43h-.83c-.37 0-.67.3-.67.67s.3.67.67.67h.83c1.54 0 2.79-1.25 2.79-2.78v-32.55s0 0 0 0v-10.31zm-28.57 42.93c.08-.08.19-.12.3-.12h21.04c.24 0 .44.2.44.44v11.53c0 .24-.2.44-.44.44h-21.04c-.11 0-.22-.04-.3-.12l-5.74-5.39h2.21c.29.85 1.09 1.47 2.03 1.47 1.19 0 2.16-.97 2.16-2.16s-.97-2.16-2.16-2.16c-.96 0-1.77.64-2.05 1.51h-2.24zm-2.31 6.07c0-.45.36-.81.81-.81.44 0 .81.37.81.81 0 .45-.36.82-.81.82s-.81-.36-.81-.82zm-26.08-49.01c0-.79.64-1.43 1.43-1.43h52.73c.8 0 1.44.65 1.44 1.44v9.64h-38.12c-.12 0-.22-.05-.31-.11-.07-.05-.13-.11-.16-.2l-1.26-2.81c-.06-.13-.14-.24-.22-.35-.02-.03-.04-.07-.06-.1-.35-.41-.86-.65-1.41-.65h-6.15c-.37 0-.72.11-1.02.3-.01.01-.02.02-.03.03-.13.09-.26.19-.36.32-.02.03-.04.06-.06.09-.09.11-.17.23-.23.36l-1.26 2.81c-.08.18-.27.3-.47.3h-4.48z"/><path d="m55 12.89c1.48 0 2.68-1.2 2.68-2.67 0-1.48-1.2-2.68-2.68-2.68-1.47 0-2.67 1.2-2.67 2.68-.01 1.47 1.19 2.67 2.67 2.67zm0-4.01c.74 0 1.34.6 1.34 1.34 0 .73-.6 1.33-1.34 1.33-.73 0-1.33-.6-1.33-1.33 0-.74.59-1.34 1.33-1.34z"/><path d="m46.88 12.89c1.48 0 2.68-1.2 2.68-2.67 0-1.48-1.2-2.68-2.68-2.68-1.47 0-2.67 1.2-2.67 2.68 0 1.47 1.2 2.67 2.67 2.67zm0-4.01c.74 0 1.34.6 1.34 1.34 0 .73-.6 1.33-1.34 1.33-.73 0-1.33-.6-1.33-1.33 0-.74.6-1.34 1.33-1.34z"/><path d="m38.77 12.89c1.48 0 2.68-1.2 2.68-2.67 0-1.48-1.2-2.68-2.68-2.68-1.47 0-2.67 1.2-2.67 2.68 0 1.47 1.2 2.67 2.67 2.67zm0-4.01c.74 0 1.34.6 1.34 1.34 0 .73-.6 1.33-1.34 1.33-.73 0-1.33-.6-1.33-1.33 0-.74.6-1.34 1.33-1.34z"/><path d="m9.3 32.34c0 6.3 5.13 11.42 11.42 11.42s11.42-5.13 11.42-11.42-5.13-11.42-11.42-11.42-11.42 5.12-11.42 11.42zm21.5 0c0 5.56-4.52 10.08-10.08 10.08s-10.08-4.52-10.08-10.08 4.52-10.08 10.08-10.08 10.08 4.52 10.08 10.08z"/><path d="m19.28 30.29-1.76-2.34c-.22-.3-.64-.36-.94-.13-.3.22-.36.64-.13.94l1.15 1.53h-2.98-1.08c-.37 0-.67.3-.67.67s.3.67.67.67h.63l2.13 5.14c.37.9 1.24 1.48 2.22 1.48h4.42c.97 0 1.84-.58 2.22-1.48l2.13-5.14h.63c.37 0 .67-.3.67-.67s-.3-.67-.67-.67h-1.08-2.99l1.15-1.53c.22-.3.16-.72-.13-.94-.3-.22-.72-.16-.94.13l-1.76 2.34zm4.63 5.98c-.16.4-.55.65-.97.65h-4.42c-.43 0-.81-.26-.97-.65l-1.92-4.63h10.21z"/><path d="m18.69 32.6c-.37 0-.67.3-.67.67v1.48c0 .37.3.67.67.67s.67-.3.67-.67v-1.48c.01-.37-.29-.67-.67-.67z"/><path d="m20.93 32.6c-.37 0-.67.3-.67.67v1.48c0 .37.3.67.67.67s.67-.3.67-.67v-1.48c.01-.37-.3-.67-.67-.67z"/><path d="m22.5 34.74c0 .37.3.67.67.67s.67-.3.67-.67v-1.48c0-.37-.3-.67-.67-.67s-.67.3-.67.67z"/><path d="m53.31 29.03c.75 0 1.36-.61 1.36-1.36v-4.45c0-.75-.61-1.36-1.36-1.36h-13.35c-.75 0-1.36.61-1.36 1.36v4.45c0 .75.61 1.36 1.36 1.36zm-13.35-5.82h13.35c.01 0 .01.01.01.01l-.01 4.46-13.37-.01z"/><path d="m38.89 34.52h-1.65c-.37 0-.67.3-.67.67s.3.67.67.67h1.65c.37 0 .67-.3.67-.67s-.3-.67-.67-.67z"/><path d="m38.89 38.82h-1.65c-.37 0-.67.3-.67.67s.3.67.67.67h1.65c.37 0 .67-.3.67-.67.01-.37-.3-.67-.67-.67z"/><path d="m38.89 43.13h-1.65c-.37 0-.67.3-.67.67s.3.67.67.67h1.65c.37 0 .67-.3.67-.67s-.3-.67-.67-.67z"/><path d="m56.03 34.52h-12.9c-.37 0-.67.3-.67.67s.3.67.67.67h12.9c.37 0 .67-.3.67-.67s-.3-.67-.67-.67z"/><path d="m56.03 38.82h-12.9c-.37 0-.67.3-.67.67s.3.67.67.67h12.9c.37 0 .67-.3.67-.67s-.3-.67-.67-.67z"/><path d="m56.03 43.13h-12.9c-.37 0-.67.3-.67.67s.3.67.67.67h12.9c.37 0 .67-.3.67-.67s-.3-.67-.67-.67z"/><path d="m41.63 59.76c.11.06.22.09.34.09.23 0 .46-.12.58-.33l4.73-8.07c.19-.32.08-.73-.24-.92s-.73-.08-.92.24l-4.73 8.07c-.19.32-.08.73.24.92z"/><path d="m40.8 55.01c.12 0 .24-.01.36-.03.61-.1 1.14-.43 1.51-.93.36-.5.5-1.11.41-1.71-.2-1.25-1.39-2.11-2.64-1.91-.61.1-1.14.43-1.5.93s-.5 1.11-.4 1.71c.17 1.13 1.15 1.94 2.26 1.94zm-.77-2.87c.15-.21.37-.34.62-.38.05-.01.1-.01.15-.01.46 0 .87.34.95.81.04.25-.02.51-.17.71-.15.21-.37.34-.63.38-.52.08-1.01-.27-1.09-.8-.04-.25.02-.5.17-.71z"/><path d="m45.77 56.16c-.36.5-.5 1.11-.4 1.71.18 1.13 1.16 1.94 2.27 1.94.12 0 .24-.01.36-.03.61-.1 1.14-.43 1.51-.93.36-.5.5-1.11.41-1.71-.2-1.25-1.38-2.12-2.64-1.91-.61.1-1.15.43-1.51.93zm1.87.39c.46 0 .87.34.95.81.04.25-.02.51-.17.71-.15.21-.37.34-.63.38-.52.08-1.01-.27-1.09-.8-.04-.25.02-.51.17-.71.15-.21.37-.34.62-.38.04-.01.1-.01.15-.01z"/></g></g></svg>