<?xml version="1.0"?>
<svg xmlns="http://www.w3.org/2000/svg" id="Layer_1" data-name="Layer 1" viewBox="0 0 64 64"><path d="M10.982,33.657h.787a.464.464,0,0,1,.328.792L11.542,35a2.46,2.46,0,0,0,0,3.485l1.536,1.536a2.446,2.446,0,0,0,1.741.722h0a2.448,2.448,0,0,0,1.742-.721l.556-.557a.464.464,0,0,1,.792.328v.786a2.467,2.467,0,0,0,2.464,2.464h2.172a2.467,2.467,0,0,0,2.464-2.464V39.8a.464.464,0,0,1,.792-.328l.556.556a2.524,2.524,0,0,0,3.485,0l1.536-1.536a2.466,2.466,0,0,0,0-3.484l-.556-.557a.464.464,0,0,1,.328-.791h.787A2.467,2.467,0,0,0,34.4,31.193V29.021a2.466,2.466,0,0,0-2.463-2.464h-.788a.464.464,0,0,1-.327-.792l.556-.557a2.467,2.467,0,0,0,0-3.484l-1.536-1.536a2.524,2.524,0,0,0-3.485,0l-.556.556a.464.464,0,0,1-.792-.328v-.787a2.467,2.467,0,0,0-2.464-2.463H20.373a2.467,2.467,0,0,0-2.464,2.463v.787a.464.464,0,0,1-.792.328l-.556-.556a2.522,2.522,0,0,0-3.484,0l-1.536,1.536a2.46,2.46,0,0,0,0,3.484l.556.557a.464.464,0,0,1-.328.792h-.787a2.466,2.466,0,0,0-2.463,2.464v2.172A2.467,2.467,0,0,0,10.982,33.657Zm-.463-4.636a.464.464,0,0,1,.463-.464h.787a2.464,2.464,0,0,0,1.742-4.206l-.556-.557a.461.461,0,0,1,0-.656L14.491,21.6a.461.461,0,0,1,.655,0l.557.555a2.464,2.464,0,0,0,4.206-1.742v-.787a.464.464,0,0,1,.464-.463h2.172a.464.464,0,0,1,.464.463v.787a2.464,2.464,0,0,0,4.206,1.743l.556-.557a.465.465,0,0,1,.657,0l1.536,1.536a.464.464,0,0,1,0,.656l-.556.556a2.464,2.464,0,0,0,1.741,4.207h.788a.464.464,0,0,1,.463.464v2.172a.464.464,0,0,1-.463.464H31.15a2.463,2.463,0,0,0-1.742,4.206l.556.556a.464.464,0,0,1,0,.656l-1.536,1.536a.465.465,0,0,1-.657,0l-.556-.556A2.464,2.464,0,0,0,23.009,39.8v.786a.464.464,0,0,1-.464.464H20.373a.464.464,0,0,1-.464-.464V39.8A2.463,2.463,0,0,0,15.7,38.055l-.557.556a.462.462,0,0,1-.655,0l-1.537-1.537a.461.461,0,0,1,0-.655l.556-.556a2.464,2.464,0,0,0-1.742-4.206h-.787a.464.464,0,0,1-.463-.464Z"/><path d="M21.459,36.5a6.39,6.39,0,1,0-6.39-6.391A6.4,6.4,0,0,0,21.459,36.5Zm0-10.78a4.39,4.39,0,1,1-4.39,4.389A4.394,4.394,0,0,1,21.459,25.717Z"/><path d="M14.167,8.513h7.515a1,1,0,0,0,0-2H14.167a1,1,0,0,0,0,2Z"/><path d="M27.031,8.513h1.72a1,1,0,0,0,0-2h-1.72a1,1,0,0,0,0,2Z"/><path d="M18.03,47.83a1.046,1.046,0,0,0-.91-.27.652.652,0,0,0-.181.06.751.751,0,0,0-.179.09l-.151.12a1.2,1.2,0,0,0-.21.33.942.942,0,0,0,0,.76.962.962,0,0,0,.21.33,1.721,1.721,0,0,0,.151.12,1.606,1.606,0,0,0,.179.1,1.256,1.256,0,0,0,.181.05.674.674,0,0,0,.2.02,1.007,1.007,0,0,0,.711-.29,1.051,1.051,0,0,0,.289-.71.994.994,0,0,0-.079-.38A1.177,1.177,0,0,0,18.03,47.83Z"/><path d="M22.01,47.71a.947.947,0,0,0-.17-.09,1.042,1.042,0,0,0-.191-.06.9.9,0,0,0-.569.06,1.6,1.6,0,0,0-.181.09l-.149.12a1.047,1.047,0,0,0-.29.71,1.5,1.5,0,0,0,.019.2.672.672,0,0,0,.061.18.608.608,0,0,0,.09.18,1.576,1.576,0,0,0,.12.15,1.7,1.7,0,0,0,.149.12,1.724,1.724,0,0,0,.181.1,1.209,1.209,0,0,0,.18.05.68.68,0,0,0,.2.02.606.606,0,0,0,.189-.02,1.044,1.044,0,0,0,.191-.05.986.986,0,0,0,.17-.1.628.628,0,0,0,.15-.12,1,1,0,0,0,.3-.71,1.017,1.017,0,0,0-.3-.71A1.035,1.035,0,0,0,22.01,47.71Z"/><path d="M25.979,47.62a1,1,0,0,0-.759,0,.827.827,0,0,0-.33.22.443.443,0,0,0-.12.15.894.894,0,0,0-.1.17.978.978,0,0,0-.05.19.615.615,0,0,0-.02.19.99.99,0,0,0,.29.71,1.107,1.107,0,0,0,.33.22,1.064,1.064,0,0,0,.759,0,1.445,1.445,0,0,0,.331-.22,1.033,1.033,0,0,0,.29-.71,1.009,1.009,0,0,0-.29-.7A1,1,0,0,0,25.979,47.62Z"/><path d="M29.738,55.662H13.18a1,1,0,0,0,0,2H29.738a1,1,0,1,0,0-2Z"/><path d="M58.378,37.57l-.947-.577a17.458,17.458,0,0,0,.4-4.1c-.251-10.592-9.562-19.147-9.959-19.506a1,1,0,0,0-1.343,0,37.246,37.246,0,0,0-5.607,6.794V6.266a3.9,3.9,0,0,0-3.892-3.892H5.893A3.9,3.9,0,0,0,2,6.266V57.734a3.9,3.9,0,0,0,3.893,3.892H37.026a3.9,3.9,0,0,0,3.892-3.892V44.971a25.437,25.437,0,0,0,1.786,2,1,1,0,0,0,.706.292h7.574a1,1,0,0,0,.706-.292A24.11,24.11,0,0,0,54.5,43.625l1.056.569a5.62,5.62,0,0,1,2.169,2.086l2.409,4.1A1,1,0,0,0,62,49.87V44.024A7.521,7.521,0,0,0,58.378,37.57ZM47.2,15.53a36.611,36.611,0,0,1,5.915,8.014H41.283A36.582,36.582,0,0,1,47.2,15.53ZM5.893,4.374H37.026a1.894,1.894,0,0,1,1.892,1.892V23.731A22.623,22.623,0,0,0,36.567,32.9a17.424,17.424,0,0,0,.4,4.094l-.957.584A7.528,7.528,0,0,0,32.4,44.024V49.87a1,1,0,0,0,.738.964.985.985,0,0,0,.262.036,1,1,0,0,0,.863-.494l2.409-4.1A5.641,5.641,0,0,1,38.825,44.2l.093-.049V51.7H4V6.266A1.894,1.894,0,0,1,5.893,4.374ZM37.527,38.988a18.253,18.253,0,0,0,1.3,2.937l-.957.513a7.652,7.652,0,0,0-2.926,2.828l-.547.93V44.024a5.541,5.541,0,0,1,2.651-4.746Zm-.5,20.638H5.893A1.894,1.894,0,0,1,4,57.734V53.7H38.918v4.034A1.894,1.894,0,0,1,37.026,59.626ZM50.566,45.26H43.828c-3.6-3.7-5.364-7.839-5.261-12.309a19.885,19.885,0,0,1,1.747-7.407H54.081a19.865,19.865,0,0,1,1.747,7.407C55.931,37.421,54.161,41.56,50.566,45.26ZM60,46.2l-.547-.93a7.62,7.62,0,0,0-2.943-2.831l-.945-.51a18.267,18.267,0,0,0,1.3-2.934l.468.285A5.534,5.534,0,0,1,60,44.024Z"/><path d="M47.2,26.818a5.537,5.537,0,1,0,5.536,5.537A5.543,5.543,0,0,0,47.2,26.818Zm0,9.073a3.537,3.537,0,1,1,3.536-3.536A3.54,3.54,0,0,1,47.2,35.891Z"/></svg>
