<svg clip-rule="evenodd" fill-rule="evenodd" height="7.111in" image-rendering="optimizeQuality" shape-rendering="geometricPrecision" text-rendering="geometricPrecision" viewBox="0 0 7111 7111" width="7.111in" xmlns="http://www.w3.org/2000/svg"><g id="Layer_x0020_1"><g id="_504512992"><g><g><path d="m5808 5881h-4505c-54 0-97-43-97-97s43-97 97-97h4505c55 0 98 43 98 97s-45 97-98 97zm0-4455h-4505c-54 0-97-43-97-98 0-54 43-97 97-97h4505c55 0 98 43 98 97 0 55-45 98-98 98z"/></g><g><g><path d="m5427 7108h-3743c-263 0-478-215-478-479v-6147c0-264 215-479 478-479h3743c263 0 479 215 479 479v6147c0 266-216 479-479 479zm-3743-6911c-156 0-284 128-284 285v6147c0 157 128 285 284 285h3743c157 0 284-128 284-285v-6147c0-157-127-285-284-285z"/></g><g><path d="m3768 6495h-425c-54 0-97-43-97-97s43-98 97-98h425c54 0 97 44 97 98s-44 97-97 97z"/></g><g><g><path d="m3600 812h-614c-54 0-97-43-97-97s43-97 97-97h615c54 0 98 43 98 97s-45 97-99 97z"/></g><g><path d="m4125 812h-209c-54 0-97-43-97-97s43-97 97-97h209c54 0 97 43 97 97s-45 97-97 97z"/></g></g></g><g><g><path d="m4019 5408h-928c-116 0-209-93-209-208v-345c-40-20-79-43-115-66l-298 172c-49 28-104 35-159 21-54-14-98-49-126-97l-463-804c-28-47-37-104-21-158 14-54 48-99 95-127l298-172c-2-22-2-44-2-66 0-23 0-46 2-68l-299-172c-47-27-82-73-97-127-14-53-7-111 21-158l465-805c26-47 72-82 125-97 54-14 111-7 158 21l298 170c38-25 77-47 116-66v-345c0-115 93-208 208-208h928c116 0 209 93 209 208v345c38 20 77 43 116 66l297-172c49-28 104-36 160-21 54 14 98 49 126 97l464 804c28 47 36 103 21 157-14 54-50 100-99 128l-297 172c1 23 1 46 1 66 0 21 0 44-1 67l297 172c100 59 135 186 76 285l-465 803c-26 48-72 82-126 98-54 14-110 7-157-20l-298-172c-38 24-77 46-117 68v343c4 117-89 211-204 211zm-1249-832c19 0 40 6 57 19 58 41 122 79 194 113 33 17 56 50 56 88v404c0 7 7 14 14 14h928c7 0 14-7 14-14v-404c0-38 22-72 56-88 72-34 136-70 194-113 30-23 72-24 105-6l350 203c4 2 9 1 11 1 3 0 6-3 9-6l465-805c1-2 2-7 1-9 0-3-3-7-7-10l-350-201c-32-18-51-54-48-92 2-42 4-79 4-114 0-34-2-73-4-114-3-37 15-72 48-91l350-203c6-3 7-7 7-8 0-2 1-6-1-9 0 0 0-1-2-1l-465-805c-3-4-5-6-8-6s-7-1-11 2l-349 201c-33 20-73 17-104-4-64-44-129-82-194-112-35-16-57-50-57-89v-406c0-7-7-14-14-14h-928c-7 0-14 7-14 14v406c0 37-23 72-56 87-65 31-130 68-194 113-31 22-71 23-104 4l-351-202c-5-2-9-2-12-1-2 1-5 3-7 6l-465 806s0 1-1 1c-1 3-1 7-1 10s1 6 5 7l351 203c34 19 52 55 49 94-4 36-6 72-6 111 0 38 2 75 6 111 4 38-15 75-49 95l-351 201c-4 3-5 6-5 8-2 4 0 7 1 10l465 805c1 4 4 6 8 7 3 0 7 1 12-1l349-203c16-8 32-13 49-13z"/></g><g><path d="m3554 4604c-577 0-1048-470-1048-1048 0-579 471-1049 1048-1049 579 0 1050 470 1050 1049s-471 1048-1050 1048zm0-1903c-470 0-853 383-853 855 0 471 383 854 853 854 472 0 855-383 855-854 0-472-383-855-855-855z"/></g><g><g><g><path d="m3268 3998c-25 0-50-10-68-28l-344-344c-18-18-29-43-29-70 0-26 10-50 29-69l344-344c38-38 100-38 138 0 37 37 37 100 0 137l-277 276 277 275c37 38 37 100 0 138-20 19-45 29-70 29z"/></g><g><path d="m3843 3998c-25 0-50-10-70-29-37-38-37-100 0-138l277-275-277-276c-37-37-37-100 0-137 38-38 100-38 138 0l344 344c18 18 29 43 29 69 0 27-9 50-29 70l-344 344c-20 18-45 28-68 28z"/></g></g><g><path d="m3472 4081c-5 0-12 0-18-1-53-10-87-62-76-114l164-855c9-53 61-88 113-77 53 10 88 61 77 114l-165 855c-7 46-49 78-95 78z"/></g></g></g></g></g></g></svg>